<svg width="56" height="14" viewBox="0 0 56 14" fill="none" xmlns="http://www.w3.org/2000/svg">
<path fill-rule="evenodd" clip-rule="evenodd" d="M10.0017 3.6129C10.448 4.05922 10.448 4.78285 10.0017 5.22917L6.71601 8.51489C6.58324 7.87585 6.18888 7.29405 5.57916 6.94203C5.46372 6.87538 5.345 6.81953 5.22418 6.77417L8.38545 3.6129C8.83177 3.16658 9.5554 3.16658 10.0017 3.6129ZM3.20161 6.94449L1.87866 5.8315C1.39566 5.42515 0.674704 5.48729 0.268357 5.97029C-0.13799 6.45328 -0.0758517 7.17424 0.407147 7.58059L2.02068 8.93806C2.02983 8.55395 2.13262 8.16661 2.33826 7.81043C2.55337 7.43785 2.85427 7.14569 3.20161 6.94449Z" fill="#0000FF"/>
<circle cx="4.38969" cy="8.99796" r="1.26197" transform="rotate(30 4.38969 8.99796)" fill="#808080"/>
<path d="M16.9197 11.1294C16.3445 11.1294 15.8125 11.0252 15.3236 10.8167C14.8348 10.6082 14.407 10.317 14.0403 9.94316C13.6737 9.56931 13.3861 9.13076 13.1776 8.62751C12.9763 8.12425 12.8757 7.57426 12.8757 6.97754C12.8757 6.38083 12.9727 5.83084 13.1668 5.32758C13.3681 4.81714 13.6485 4.37858 14.008 4.01193C14.3746 3.63808 14.8024 3.3505 15.2913 3.1492C15.7802 2.94071 16.3122 2.83646 16.8873 2.83646C17.4625 2.83646 17.9765 2.93352 18.4295 3.12763C18.8896 3.32175 19.2778 3.58056 19.5941 3.90408C19.9105 4.22042 20.1369 4.5691 20.2735 4.95014L18.9687 5.57561C18.8177 5.15863 18.5625 4.82073 18.203 4.56191C17.8435 4.3031 17.405 4.17369 16.8873 4.17369C16.3841 4.17369 15.9383 4.29231 15.5501 4.52956C15.1691 4.76681 14.8707 5.09393 14.655 5.51091C14.4465 5.92789 14.3423 6.41677 14.3423 6.97754C14.3423 7.53831 14.4501 8.03079 14.6658 8.45496C14.8887 8.87194 15.1942 9.19906 15.5825 9.43631C15.9707 9.67356 16.4164 9.79218 16.9197 9.79218C17.3295 9.79218 17.7069 9.7131 18.052 9.55494C18.3971 9.38958 18.6739 9.15952 18.8824 8.86475C19.0909 8.5628 19.1951 8.20693 19.1951 7.79713V7.18244L19.8637 7.76478H16.8873V6.52461H20.6618V7.33342C20.6618 7.9517 20.5575 8.4981 20.349 8.9726C20.1405 9.44709 19.8565 9.8461 19.4971 10.1696C19.1448 10.486 18.7458 10.7268 18.3 10.8922C17.8543 11.0503 17.3942 11.1294 16.9197 11.1294ZM24.5722 11.1294C23.9971 11.1294 23.4723 10.9964 22.9978 10.7304C22.5305 10.4644 22.1566 10.1013 21.8762 9.64121C21.603 9.18109 21.4664 8.65626 21.4664 8.06673C21.4664 7.47721 21.603 6.95238 21.8762 6.49226C22.1566 6.03214 22.5305 5.66908 22.9978 5.40307C23.4651 5.13706 23.9899 5.00406 24.5722 5.00406C25.1474 5.00406 25.6686 5.13706 26.1359 5.40307C26.6032 5.66908 26.9735 6.03214 27.2467 6.49226C27.5271 6.94519 27.6673 7.47002 27.6673 8.06673C27.6673 8.65626 27.5271 9.18109 27.2467 9.64121C26.9663 10.1013 26.5925 10.4644 26.1251 10.7304C25.6578 10.9964 25.1402 11.1294 24.5722 11.1294ZM24.5722 9.83532C24.8886 9.83532 25.1654 9.75983 25.4026 9.60886C25.6471 9.45788 25.8376 9.24939 25.9742 8.98338C26.118 8.71018 26.1899 8.40463 26.1899 8.06673C26.1899 7.72164 26.118 7.41969 25.9742 7.16087C25.8376 6.89487 25.6471 6.68637 25.4026 6.5354C25.1654 6.37723 24.8886 6.29815 24.5722 6.29815C24.2487 6.29815 23.9647 6.37723 23.7203 6.5354C23.4759 6.68637 23.2817 6.89487 23.138 7.16087C23.0014 7.41969 22.9331 7.72164 22.9331 8.06673C22.9331 8.40463 23.0014 8.71018 23.138 8.98338C23.2817 9.24939 23.4759 9.45788 23.7203 9.60886C23.9647 9.75983 24.2487 9.83532 24.5722 9.83532ZM30.518 11.1294C30.1082 11.1294 29.7523 11.0611 29.4503 10.9245C29.1484 10.7879 28.9147 10.5938 28.7494 10.3422C28.584 10.0834 28.5013 9.785 28.5013 9.44709C28.5013 9.12357 28.5732 8.836 28.717 8.58437C28.8608 8.32555 29.0837 8.10987 29.3856 7.93733C29.6876 7.76478 30.0686 7.64256 30.5288 7.57067L32.4483 7.25793V8.33634L30.7984 8.61672C30.518 8.66705 30.3095 8.75691 30.1729 8.88632C30.0363 9.01573 29.968 9.18468 29.968 9.39317C29.968 9.59448 30.0435 9.75624 30.1944 9.87846C30.3526 9.99349 30.5467 10.051 30.7768 10.051C31.0716 10.051 31.3304 9.98989 31.5532 9.86767C31.7833 9.73826 31.9594 9.56212 32.0817 9.33925C32.2111 9.11638 32.2758 8.87194 32.2758 8.60594V7.09617C32.2758 6.84454 32.1751 6.63605 31.9738 6.47069C31.7797 6.29815 31.5209 6.21187 31.1974 6.21187C30.8954 6.21187 30.6258 6.29455 30.3886 6.45991C30.1585 6.61807 29.9896 6.83016 29.8817 7.09617L28.7278 6.5354C28.8428 6.22625 29.0226 5.96025 29.267 5.73738C29.5186 5.50732 29.8134 5.32758 30.1513 5.19817C30.4892 5.06876 30.8559 5.00406 31.2513 5.00406C31.733 5.00406 32.1571 5.09393 32.5238 5.27366C32.8905 5.44621 33.1744 5.69064 33.3757 6.00698C33.5842 6.31612 33.6885 6.67918 33.6885 7.09617V11H32.3513V9.99708L32.6532 9.97551C32.5022 10.2271 32.3225 10.4392 32.114 10.6118C31.9055 10.7771 31.6683 10.9065 31.4023 11C31.1363 11.0863 30.8415 11.1294 30.518 11.1294ZM34.9942 11V2.83646H36.4069V11H34.9942Z" fill="#0000FF"/>
<path d="M40.6985 11.1294C40.188 11.1294 39.7135 11.0359 39.275 10.849C38.8436 10.6621 38.4698 10.4033 38.1534 10.0726C37.8443 9.73467 37.6178 9.34285 37.474 8.89711L38.6926 8.36869C38.8867 8.82881 39.1671 9.19187 39.5338 9.45788C39.9004 9.7167 40.3138 9.8461 40.774 9.8461C41.0328 9.8461 41.2556 9.80656 41.4426 9.72748C41.6367 9.64121 41.7841 9.52618 41.8847 9.38239C41.9926 9.2386 42.0465 9.06606 42.0465 8.86475C42.0465 8.62751 41.9746 8.43339 41.8308 8.28242C41.6942 8.12425 41.4857 8.00203 41.2053 7.91576L39.6632 7.41969C39.0377 7.22558 38.5668 6.93441 38.2505 6.54618C37.9341 6.15795 37.776 5.70143 37.776 5.1766C37.776 4.71648 37.8874 4.31028 38.1103 3.958C38.3403 3.60573 38.6567 3.33253 39.0593 3.13842C39.4691 2.93711 39.9364 2.83646 40.4612 2.83646C40.9429 2.83646 41.385 2.92273 41.7877 3.09528C42.1903 3.26064 42.5353 3.49429 42.8229 3.79624C43.1177 4.09101 43.337 4.43969 43.4808 4.8423L42.2729 5.3815C42.1148 4.9789 41.8775 4.66975 41.5612 4.45407C41.2449 4.2312 40.8782 4.11977 40.4612 4.11977C40.2168 4.11977 40.0011 4.1629 39.8142 4.24917C39.6272 4.32826 39.4799 4.44329 39.372 4.59426C39.2714 4.73805 39.221 4.9106 39.221 5.1119C39.221 5.33477 39.2929 5.53248 39.4367 5.70502C39.5805 5.87038 39.7998 5.99979 40.0946 6.09325L41.572 6.55696C42.2118 6.76546 42.6899 7.05303 43.0063 7.41969C43.3298 7.78635 43.4915 8.23928 43.4915 8.77848C43.4915 9.2386 43.3729 9.6448 43.1357 9.99708C42.8984 10.3494 42.5713 10.6262 42.1543 10.8275C41.7373 11.0288 41.252 11.1294 40.6985 11.1294ZM47.4758 11.1294C46.8719 11.1294 46.3435 10.9928 45.8906 10.7196C45.4376 10.4464 45.0854 10.0762 44.8337 9.60886C44.5821 9.14155 44.4563 8.62391 44.4563 8.05595C44.4563 7.46642 44.5821 6.94519 44.8337 6.49226C45.0925 6.03214 45.4412 5.66908 45.8798 5.40307C46.3255 5.13706 46.8216 5.00406 47.368 5.00406C47.8281 5.00406 48.2307 5.07955 48.5758 5.23052C48.9281 5.3815 49.2264 5.58999 49.4709 5.856C49.7153 6.12201 49.9022 6.42756 50.0317 6.77265C50.1611 7.11055 50.2258 7.47721 50.2258 7.87262C50.2258 7.97327 50.2186 8.07752 50.2042 8.18536C50.197 8.2932 50.179 8.38666 50.1503 8.46574H45.621V7.38734H49.3523L48.6836 7.89419C48.7483 7.56348 48.7304 7.26871 48.6297 7.0099C48.5363 6.75108 48.3781 6.54618 48.1552 6.3952C47.9395 6.24423 47.6771 6.16874 47.368 6.16874C47.0732 6.16874 46.8108 6.24423 46.5808 6.3952C46.3507 6.53899 46.1746 6.75467 46.0523 7.04225C45.9373 7.32263 45.8942 7.66413 45.9229 8.06673C45.8942 8.4262 45.9409 8.74613 46.0631 9.02652C46.1925 9.29971 46.3794 9.5118 46.6239 9.66278C46.8755 9.81375 47.1631 9.88924 47.4866 9.88924C47.8101 9.88924 48.0833 9.82094 48.3062 9.68434C48.5363 9.54775 48.716 9.36442 48.8454 9.13436L49.9885 9.69513C49.8735 9.97551 49.6938 10.2235 49.4493 10.4392C49.2049 10.6549 48.9137 10.8239 48.5758 10.9461C48.2451 11.0683 47.8784 11.1294 47.4758 11.1294ZM53.9711 11.0647C53.3097 11.0647 52.7957 10.885 52.429 10.5255C52.0695 10.1588 51.8898 9.6448 51.8898 8.98338V6.3952H50.8761V5.13347H50.9839C51.2715 5.13347 51.4944 5.05798 51.6525 4.907C51.8107 4.75603 51.8898 4.53675 51.8898 4.24917V3.79624H53.3025V5.13347H54.6505V6.3952H53.3025V8.90789C53.3025 9.102 53.3349 9.26736 53.3996 9.40396C53.4715 9.54056 53.5793 9.6448 53.7231 9.7167C53.8741 9.78859 54.0646 9.82454 54.2946 9.82454C54.345 9.82454 54.4025 9.82094 54.4672 9.81375C54.5391 9.80656 54.6074 9.79937 54.6721 9.79218V11C54.5714 11.0144 54.4564 11.0288 54.327 11.0431C54.1976 11.0575 54.079 11.0647 53.9711 11.0647Z" fill="#808080"/>
</svg>
