<svg width="58" height="15" viewBox="0 0 58 15" fill="none" xmlns="http://www.w3.org/2000/svg">
<path fill-rule="evenodd" clip-rule="evenodd" d="M10.0017 4.26638C10.448 4.7127 10.448 5.43633 10.0017 5.88265L6.71601 9.16837C6.58324 8.52933 6.18888 7.94753 5.57916 7.59551C5.46372 7.52886 5.345 7.47301 5.22418 7.42766L8.38545 4.26638C8.83177 3.82006 9.5554 3.82006 10.0017 4.26638ZM3.20161 7.59797L1.87866 6.48498C1.39566 6.07863 0.674704 6.14077 0.268357 6.62377C-0.13799 7.10676 -0.0758519 7.82772 0.407147 8.23407L2.02068 9.59154C2.02983 9.20743 2.13262 8.82009 2.33826 8.46391C2.55337 8.09133 2.85427 7.79917 3.20161 7.59797Z" fill="#0000FF"/>
<circle cx="4.38769" cy="9.65162" r="1.26197" transform="rotate(30 4.38769 9.65162)" fill="#808080"/>
<path d="M12.4546 11.6543L15.2261 3.62017H17.1241L19.8956 11.6543H18.2995L17.728 9.92885H14.6222L14.0398 11.6543H12.4546ZM15.0427 8.63476H17.3074L15.9702 4.63387H16.38L15.0427 8.63476ZM20.7897 11.6543V3.62017H22.2564V11.6543H20.7897ZM23.8017 11.6543V3.62017H25.2036L28.2124 7.70733H27.5437L30.4878 3.62017H31.8897V11.6543H30.4123V5.2917L30.9839 5.43189L27.932 9.49748H27.7594L24.783 5.43189L25.2683 5.2917V11.6543H23.8017Z" fill="#0000FF"/>
<path d="M32.7695 11.6543L35.541 3.62017H37.439L40.2105 11.6543H38.6144L38.0429 9.92885H34.9371L34.3547 11.6543H32.7695ZM35.3576 8.63476H37.6223L36.2851 4.63387H36.6949L35.3576 8.63476ZM41.991 11.6543V4.91426H39.9097V3.62017H45.5174V4.91426H43.4684V11.6543H41.991ZM46.4124 11.6543V3.62017H47.879V11.6543H46.4124ZM53.1988 11.7837C52.6236 11.7837 52.0916 11.6795 51.6027 11.471C51.1211 11.2625 50.6969 10.9713 50.3302 10.5975C49.9708 10.2236 49.6904 9.78506 49.4891 9.2818C49.2878 8.77855 49.1871 8.22856 49.1871 7.63184C49.1871 7.03512 49.2842 6.48513 49.4783 5.98188C49.6796 5.47143 49.96 5.03288 50.3194 4.66622C50.6861 4.29237 51.1139 4.0048 51.6027 3.8035C52.0916 3.59501 52.6236 3.49076 53.1988 3.49076C53.7739 3.49076 54.288 3.58782 54.7409 3.78193C55.201 3.97604 55.5893 4.23486 55.9056 4.55838C56.2219 4.87471 56.4484 5.2234 56.585 5.60444L55.2693 6.21913C55.1183 5.81652 54.8631 5.48581 54.5037 5.22699C54.1442 4.96099 53.7092 4.82798 53.1988 4.82798C52.6955 4.82798 52.2498 4.94661 51.8616 5.18386C51.4805 5.42111 51.1822 5.74822 50.9665 6.16521C50.758 6.58219 50.6537 7.07107 50.6537 7.63184C50.6537 8.19261 50.758 8.68508 50.9665 9.10926C51.1822 9.52624 51.4805 9.85336 51.8616 10.0906C52.2498 10.3279 52.6955 10.4465 53.1988 10.4465C53.7092 10.4465 54.1442 10.3171 54.5037 10.0583C54.8631 9.79225 55.1183 9.45794 55.2693 9.05534L56.585 9.67003C56.4484 10.0511 56.2219 10.4033 55.9056 10.7269C55.5893 11.0432 55.201 11.2984 54.7409 11.4925C54.288 11.6866 53.7739 11.7837 53.1988 11.7837Z" fill="#808080"/>
</svg>
